<?xml version="1.0" encoding="UTF-8" standalone="yes"?>
<svg xmlns:dc="http://purl.org/dc/elements/1.1/" xmlns:cc="http://creativecommons.org/ns#" xmlns:rdf="http://www.w3.org/1999/02/22-rdf-syntax-ns#" xmlns:svg="http://www.w3.org/2000/svg" xmlns="http://www.w3.org/2000/svg" version="1.1" width="240" height="360" id="svg2" viewBox="1860 -747.63776 240 360">
  <g id="g9888">
    <rect width="240" height="360" rx="40" ry="40" x="1860" y="-747.63776" id="rect2987-8-5-81-2" style="fill:#ffffff;fill-opacity:1;fill-rule:evenodd;stroke:#000000;stroke-width:2;stroke-miterlimit:4;stroke-dasharray:none"/>
    <rect width="200" height="320" rx="20" ry="20" x="1880" y="-727.63776" id="rect3757-26-33-5-9" style="fill:#000000;fill-opacity:1;fill-rule:evenodd;stroke:none"/>
    <path d="m 2040,-667.63782 c -88.3656,0 -160,71.63444 -160,160 0,22.0914 17.9086,40 40,40 88.3656,0 160,-71.63444 160,-160 0,-22.0914 -17.9086,-40 -40,-40 z" id="path3773-0-4-8-4-60-3-86-5" style="fill:#ffffff;fill-opacity:1;fill-rule:evenodd;stroke:none"/>
    <path d="m 1891.75,-567.63782 c -7.5127,18.54188 -11.75,38.76336 -11.75,60 0,22.0914 17.9086,40 40,40 l 60,-100 -88.25,0 z" id="path3773-0-4-8-8-7-9-0" style="fill:#ffaa00;fill-opacity:1;fill-rule:evenodd;stroke:none"/>
    <path d="m 1980,-567.63782 -60,100 c 67.1289,0 124.5024,-41.38924 148.25,-100 l -88.25,0 z" id="path3773-0-4-8-8-5-6-5-0" style="fill:#00aa00;fill-opacity:1;fill-rule:evenodd;stroke:none"/>
    <path d="m 2040,-667.63782 c -67.1289,0 -124.5024,41.38924 -148.25,100 l 88.25,0 60,-100 z" id="path3773-0-4-8-8-1-4-3" style="fill:#ff5555;fill-opacity:1;fill-rule:evenodd;stroke:none"/>
    <path d="m 2040,-667.63782 -60,100 88.25,0 c 7.5127,-18.54188 11.75,-38.76336 11.75,-60 0,-22.0914 -17.9086,-40 -40,-40 z" id="path3773-0-4-8-8-5-8-3-9" style="fill:#5555ff;fill-opacity:1;fill-rule:evenodd;stroke:none"/>
    
    
    
    
    
    
    
    
    
    <path d="m 2040,-667.63787 c -67.1289,0 -124.5024,41.38924 -148.25,100 -7.5127,18.54188 -11.75,38.76336 -11.75,60 0,22.0914 17.9086,40 40,40 67.1289,0 124.5024,-41.38924 148.25,-100 7.5127,-18.54188 11.75,-38.76336 11.75,-60 0,-22.0914 -17.9086,-40 -40,-40 z" id="path3773-0-4-8-8-7-9-0-03-8" style="fill:none;stroke:#ffffff;stroke-width:4;stroke-miterlimit:4;stroke-dasharray:none"/>
    
  </g>
</svg>